M48
; DRILL file {KiCad 9.0.5} date 2025-11-15T13:23:52-0500
; FORMAT={-:-/ absolute / metric / decimal}
; #@! TF.CreationDate,2025-11-15T13:23:52-05:00
; #@! TF.GenerationSoftware,Kicad,Pcbnew,9.0.5
; #@! TF.FileFunction,Plated,1,2,PTH
FMAT,2
METRIC
; #@! TA.AperFunction,Plated,PTH,ComponentDrill
T1C0.700
%
G90
G05
T1
X100.2Y-105.65
X100.2Y-107.05
X100.2Y-108.45
X100.2Y-109.85
X100.2Y-111.25
X100.2Y-112.65
X100.2Y-114.05
X102.7Y-119.85
X104.5Y-119.85
X106.3Y-119.85
X108.1Y-119.85
X109.9Y-119.85
X111.7Y-119.85
X113.5Y-119.85
X116.0Y-105.65
X116.0Y-107.05
X116.0Y-108.45
X116.0Y-109.85
X116.0Y-111.25
X116.0Y-112.65
X116.0Y-114.05
M30
