%TF.GenerationSoftware,KiCad,Pcbnew,9.0.5*%
%TF.CreationDate,2025-11-15T13:23:46-05:00*%
%TF.ProjectId,LearningTest2,4c656172-6e69-46e6-9754-657374322e6b,rev?*%
%TF.SameCoordinates,Original*%
%TF.FileFunction,Copper,L1,Top*%
%TF.FilePolarity,Positive*%
%FSLAX46Y46*%
G04 Gerber Fmt 4.6, Leading zero omitted, Abs format (unit mm)*
G04 Created by KiCad (PCBNEW 9.0.5) date 2025-11-15 13:23:46*
%MOMM*%
%LPD*%
G01*
G04 APERTURE LIST*
G04 Aperture macros list*
%AMRoundRect*
0 Rectangle with rounded corners*
0 $1 Rounding radius*
0 $2 $3 $4 $5 $6 $7 $8 $9 X,Y pos of 4 corners*
0 Add a 4 corners polygon primitive as box body*
4,1,4,$2,$3,$4,$5,$6,$7,$8,$9,$2,$3,0*
0 Add four circle primitives for the rounded corners*
1,1,$1+$1,$2,$3*
1,1,$1+$1,$4,$5*
1,1,$1+$1,$6,$7*
1,1,$1+$1,$8,$9*
0 Add four rect primitives between the rounded corners*
20,1,$1+$1,$2,$3,$4,$5,0*
20,1,$1+$1,$4,$5,$6,$7,0*
20,1,$1+$1,$6,$7,$8,$9,0*
20,1,$1+$1,$8,$9,$2,$3,0*%
G04 Aperture macros list end*
%TA.AperFunction,SMDPad,CuDef*%
%ADD10RoundRect,0.150000X0.150000X0.700000X-0.150000X0.700000X-0.150000X-0.700000X0.150000X-0.700000X0*%
%TD*%
%TA.AperFunction,SMDPad,CuDef*%
%ADD11RoundRect,0.250000X0.250000X1.100000X-0.250000X1.100000X-0.250000X-1.100000X0.250000X-1.100000X0*%
%TD*%
%TA.AperFunction,CastellatedPad*%
%ADD12RoundRect,0.150000X-0.600000X-0.350000X0.600000X-0.350000X0.600000X0.350000X-0.600000X0.350000X0*%
%TD*%
%TA.AperFunction,CastellatedPad*%
%ADD13RoundRect,0.150000X-0.350000X1.650000X-0.350000X-1.650000X0.350000X-1.650000X0.350000X1.650000X0*%
%TD*%
%TA.AperFunction,Conductor*%
%ADD14C,0.500000*%
%TD*%
G04 APERTURE END LIST*
D10*
%TO.P,J2,1,Pin_1*%
%TO.N,Net-(J2-Pin_1)*%
X110850000Y-110450000D03*
%TO.P,J2,2,Pin_2*%
%TO.N,Net-(J2-Pin_2)*%
X109600000Y-110450000D03*
%TO.P,J2,3,Pin_3*%
%TO.N,Net-(J2-Pin_3)*%
X108350000Y-110450000D03*
%TO.P,J2,4,Pin_4*%
%TO.N,Net-(J2-Pin_4)*%
X107100000Y-110450000D03*
%TO.P,J2,5,Pin_5*%
%TO.N,Net-(J2-Pin_5)*%
X105850000Y-110450000D03*
D11*
%TO.P,J2,MP,MountPin*%
%TO.N,unconnected-(J2-MountPin-PadMP)*%
X112700000Y-107250000D03*
%TO.N,unconnected-(J2-MountPin-PadMP)_1*%
X104000000Y-107250000D03*
%TD*%
D12*
%TO.P,U1,1,P14/SPI_SCK*%
%TO.N,unconnected-(U1-P14{slash}SPI_SCK-Pad1)*%
X100200000Y-105650000D03*
%TO.P,U1,2,P16/SPI_MOSI*%
%TO.N,Net-(J2-Pin_5)*%
X100200000Y-107050000D03*
%TO.P,U1,3,P20*%
%TO.N,unconnected-(U1-P20-Pad3)*%
X100200000Y-108450000D03*
%TO.P,U1,4,P22*%
%TO.N,unconnected-(U1-P22-Pad4)*%
X100200000Y-109850000D03*
%TO.P,U1,5,ADC*%
%TO.N,unconnected-(U1-ADC-Pad5)*%
X100200000Y-111250000D03*
%TO.P,U1,6,RX2*%
%TO.N,unconnected-(U1-RX2-Pad6)*%
X100200000Y-112650000D03*
%TO.P,U1,7,TX2*%
%TO.N,unconnected-(U1-TX2-Pad7)*%
X100200000Y-114050000D03*
D13*
%TO.P,U1,8,P8*%
%TO.N,Net-(J2-Pin_4)*%
X102700000Y-118850000D03*
%TO.P,U1,9,P7*%
%TO.N,Net-(J2-Pin_3)*%
X104500000Y-118850000D03*
%TO.P,U1,10,P6*%
%TO.N,unconnected-(U1-P6-Pad10)*%
X106300000Y-118850000D03*
%TO.P,U1,11,P26*%
%TO.N,unconnected-(U1-P26-Pad11)*%
X108100000Y-118850000D03*
%TO.P,U1,12,P24*%
%TO.N,unconnected-(U1-P24-Pad12)*%
X109900000Y-118850000D03*
%TO.P,U1,13,GND*%
%TO.N,Net-(J2-Pin_2)*%
X111700000Y-118850000D03*
%TO.P,U1,14,3V3*%
%TO.N,Net-(J2-Pin_1)*%
X113500000Y-118850000D03*
D12*
%TO.P,U1,15,TX1*%
%TO.N,unconnected-(U1-TX1-Pad15)*%
X116000000Y-114050000D03*
%TO.P,U1,16,RX1*%
%TO.N,unconnected-(U1-RX1-Pad16)*%
X116000000Y-112650000D03*
%TO.P,U1,17,P28*%
%TO.N,unconnected-(U1-P28-Pad17)*%
X116000000Y-111250000D03*
%TO.P,U1,18,~{CEN}*%
%TO.N,unconnected-(U1-~{CEN}-Pad18)*%
X116000000Y-109850000D03*
%TO.P,U1,19,P9*%
%TO.N,unconnected-(U1-P9-Pad19)*%
X116000000Y-108450000D03*
%TO.P,U1,20,P17/SPI_MISO*%
%TO.N,unconnected-(U1-P17{slash}SPI_MISO-Pad20)*%
X116000000Y-107050000D03*
%TO.P,U1,21,P15/SPI_CS*%
%TO.N,unconnected-(U1-P15{slash}SPI_CS-Pad21)*%
X116000000Y-105650000D03*
%TD*%
D14*
%TO.N,Net-(J2-Pin_1)*%
X113500000Y-116450000D02*
X110850000Y-113800000D01*
X113500000Y-119850000D02*
X113500000Y-116450000D01*
X110850000Y-113800000D02*
X110850000Y-110450000D01*
%TO.N,Net-(J2-Pin_5)*%
X102200000Y-111250000D02*
X105050000Y-111250000D01*
X100200000Y-107050000D02*
X102200000Y-107050000D01*
X105050000Y-111250000D02*
X105850000Y-110450000D01*
X102200000Y-107050000D02*
X102200000Y-111250000D01*
%TO.N,Net-(J2-Pin_4)*%
X102700000Y-112650000D02*
X102900000Y-112450000D01*
X102700000Y-119850000D02*
X102700000Y-112650000D01*
X107100000Y-111350000D02*
X107100000Y-110450000D01*
X106000000Y-112450000D02*
X107100000Y-111350000D01*
X102900000Y-112450000D02*
X106000000Y-112450000D01*
%TO.N,Net-(J2-Pin_3)*%
X104500000Y-113550000D02*
X106800000Y-113550000D01*
X104500000Y-119850000D02*
X104500000Y-113550000D01*
X108350000Y-112000000D02*
X108350000Y-110450000D01*
X106800000Y-113550000D02*
X108350000Y-112000000D01*
%TO.N,Net-(J2-Pin_2)*%
X111700000Y-119850000D02*
X111700000Y-116650000D01*
X111700000Y-116650000D02*
X109600000Y-114550000D01*
X109600000Y-114550000D02*
X109600000Y-110450000D01*
%TD*%
M02*
