M48
; DRILL file {KiCad 9.0.5} date 2025-11-15T13:20:05-0500
; FORMAT={-:-/ absolute / inch / decimal}
; #@! TF.CreationDate,2025-11-15T13:20:05-05:00
; #@! TF.GenerationSoftware,Kicad,Pcbnew,9.0.5
; #@! TF.FileFunction,Plated,1,2,PTH
FMAT,2
INCH
; #@! TA.AperFunction,Plated,PTH,ComponentDrill
T1C0.0276
%
G90
G05
T1
X0.0Y-0.2402
X0.0Y-0.2953
X0.0Y-0.3504
X0.0Y-0.4055
X0.0Y-0.4606
X0.0Y-0.5157
X0.0Y-0.5709
X0.0984Y-0.7992
X0.1693Y-0.7992
X0.2402Y-0.7992
X0.311Y-0.7992
X0.3819Y-0.7992
X0.4528Y-0.7992
X0.5236Y-0.7992
X0.622Y-0.2402
X0.622Y-0.2953
X0.622Y-0.3504
X0.622Y-0.4055
X0.622Y-0.4606
X0.622Y-0.5157
X0.622Y-0.5709
M30
