%TF.GenerationSoftware,KiCad,Pcbnew,9.0.5*%
%TF.CreationDate,2025-11-15T13:20:05-05:00*%
%TF.ProjectId,LearningTest2,4c656172-6e69-46e6-9754-657374322e6b,rev?*%
%TF.SameCoordinates,Original*%
%TF.FileFunction,Copper,L1,Top*%
%TF.FilePolarity,Positive*%
%FSLAX46Y46*%
G04 Gerber Fmt 4.6, Leading zero omitted, Abs format (unit mm)*
G04 Created by KiCad (PCBNEW 9.0.5) date 2025-11-15 13:20:05*
%MOMM*%
%LPD*%
G01*
G04 APERTURE LIST*
G04 Aperture macros list*
%AMRoundRect*
0 Rectangle with rounded corners*
0 $1 Rounding radius*
0 $2 $3 $4 $5 $6 $7 $8 $9 X,Y pos of 4 corners*
0 Add a 4 corners polygon primitive as box body*
4,1,4,$2,$3,$4,$5,$6,$7,$8,$9,$2,$3,0*
0 Add four circle primitives for the rounded corners*
1,1,$1+$1,$2,$3*
1,1,$1+$1,$4,$5*
1,1,$1+$1,$6,$7*
1,1,$1+$1,$8,$9*
0 Add four rect primitives between the rounded corners*
20,1,$1+$1,$2,$3,$4,$5,0*
20,1,$1+$1,$4,$5,$6,$7,0*
20,1,$1+$1,$6,$7,$8,$9,0*
20,1,$1+$1,$8,$9,$2,$3,0*%
G04 Aperture macros list end*
%TA.AperFunction,SMDPad,CuDef*%
%ADD10RoundRect,0.150000X0.150000X0.700000X-0.150000X0.700000X-0.150000X-0.700000X0.150000X-0.700000X0*%
%TD*%
%TA.AperFunction,SMDPad,CuDef*%
%ADD11RoundRect,0.250000X0.250000X1.100000X-0.250000X1.100000X-0.250000X-1.100000X0.250000X-1.100000X0*%
%TD*%
%TA.AperFunction,CastellatedPad*%
%ADD12RoundRect,0.150000X-0.600000X-0.350000X0.600000X-0.350000X0.600000X0.350000X-0.600000X0.350000X0*%
%TD*%
%TA.AperFunction,CastellatedPad*%
%ADD13RoundRect,0.150000X-0.350000X1.650000X-0.350000X-1.650000X0.350000X-1.650000X0.350000X1.650000X0*%
%TD*%
%TA.AperFunction,Conductor*%
%ADD14C,0.500000*%
%TD*%
G04 APERTURE END LIST*
D10*
%TO.P,J2,1,Pin_1*%
%TO.N,Net-(J2-Pin_1)*%
X10650000Y-10900000D03*
%TO.P,J2,2,Pin_2*%
%TO.N,Net-(J2-Pin_2)*%
X9400000Y-10900000D03*
%TO.P,J2,3,Pin_3*%
%TO.N,Net-(J2-Pin_3)*%
X8150000Y-10900000D03*
%TO.P,J2,4,Pin_4*%
%TO.N,Net-(J2-Pin_4)*%
X6900000Y-10900000D03*
%TO.P,J2,5,Pin_5*%
%TO.N,Net-(J2-Pin_5)*%
X5650000Y-10900000D03*
D11*
%TO.P,J2,MP,MountPin*%
%TO.N,unconnected-(J2-MountPin-PadMP)*%
X12500000Y-7700000D03*
%TO.N,unconnected-(J2-MountPin-PadMP)_1*%
X3800000Y-7700000D03*
%TD*%
D12*
%TO.P,U1,1,P14/SPI_SCK*%
%TO.N,unconnected-(U1-P14{slash}SPI_SCK-Pad1)*%
X0Y-6100000D03*
%TO.P,U1,2,P16/SPI_MOSI*%
%TO.N,Net-(J2-Pin_5)*%
X0Y-7500000D03*
%TO.P,U1,3,P20*%
%TO.N,unconnected-(U1-P20-Pad3)*%
X0Y-8900000D03*
%TO.P,U1,4,P22*%
%TO.N,unconnected-(U1-P22-Pad4)*%
X0Y-10300000D03*
%TO.P,U1,5,ADC*%
%TO.N,unconnected-(U1-ADC-Pad5)*%
X0Y-11700000D03*
%TO.P,U1,6,RX2*%
%TO.N,unconnected-(U1-RX2-Pad6)*%
X0Y-13100000D03*
%TO.P,U1,7,TX2*%
%TO.N,unconnected-(U1-TX2-Pad7)*%
X0Y-14500000D03*
D13*
%TO.P,U1,8,P8*%
%TO.N,Net-(J2-Pin_4)*%
X2500000Y-19300000D03*
%TO.P,U1,9,P7*%
%TO.N,Net-(J2-Pin_3)*%
X4300000Y-19300000D03*
%TO.P,U1,10,P6*%
%TO.N,unconnected-(U1-P6-Pad10)*%
X6100000Y-19300000D03*
%TO.P,U1,11,P26*%
%TO.N,unconnected-(U1-P26-Pad11)*%
X7900000Y-19300000D03*
%TO.P,U1,12,P24*%
%TO.N,unconnected-(U1-P24-Pad12)*%
X9700000Y-19300000D03*
%TO.P,U1,13,GND*%
%TO.N,Net-(J2-Pin_2)*%
X11500000Y-19300000D03*
%TO.P,U1,14,3V3*%
%TO.N,Net-(J2-Pin_1)*%
X13300000Y-19300000D03*
D12*
%TO.P,U1,15,TX1*%
%TO.N,unconnected-(U1-TX1-Pad15)*%
X15800000Y-14500000D03*
%TO.P,U1,16,RX1*%
%TO.N,unconnected-(U1-RX1-Pad16)*%
X15800000Y-13100000D03*
%TO.P,U1,17,P28*%
%TO.N,unconnected-(U1-P28-Pad17)*%
X15800000Y-11700000D03*
%TO.P,U1,18,~{CEN}*%
%TO.N,unconnected-(U1-~{CEN}-Pad18)*%
X15800000Y-10300000D03*
%TO.P,U1,19,P9*%
%TO.N,unconnected-(U1-P9-Pad19)*%
X15800000Y-8900000D03*
%TO.P,U1,20,P17/SPI_MISO*%
%TO.N,unconnected-(U1-P17{slash}SPI_MISO-Pad20)*%
X15800000Y-7500000D03*
%TO.P,U1,21,P15/SPI_CS*%
%TO.N,unconnected-(U1-P15{slash}SPI_CS-Pad21)*%
X15800000Y-6100000D03*
%TD*%
D14*
%TO.N,Net-(J2-Pin_1)*%
X13300000Y-16900000D02*
X10650000Y-14250000D01*
X10650000Y-14250000D02*
X10650000Y-10900000D01*
X13300000Y-20300000D02*
X13300000Y-16900000D01*
%TO.N,Net-(J2-Pin_2)*%
X9400000Y-15000000D02*
X9400000Y-10900000D01*
X11500000Y-17100000D02*
X9400000Y-15000000D01*
X11500000Y-20300000D02*
X11500000Y-17100000D01*
%TO.N,Net-(J2-Pin_3)*%
X6600000Y-14000000D02*
X8150000Y-12450000D01*
X4300000Y-14000000D02*
X6600000Y-14000000D01*
X4300000Y-20300000D02*
X4300000Y-14000000D01*
X8150000Y-12450000D02*
X8150000Y-10900000D01*
%TO.N,Net-(J2-Pin_4)*%
X6900000Y-11800000D02*
X6900000Y-10900000D01*
X5800000Y-12900000D02*
X6900000Y-11800000D01*
X2700000Y-12900000D02*
X5800000Y-12900000D01*
X2500000Y-20300000D02*
X2500000Y-13100000D01*
X2500000Y-13100000D02*
X2700000Y-12900000D01*
%TO.N,Net-(J2-Pin_5)*%
X4850000Y-11700000D02*
X5650000Y-10900000D01*
X2000000Y-7500000D02*
X2000000Y-11700000D01*
X0Y-7500000D02*
X2000000Y-7500000D01*
X2000000Y-11700000D02*
X4850000Y-11700000D01*
%TD*%
M02*
