%TF.GenerationSoftware,KiCad,Pcbnew,9.0.5*%
%TF.CreationDate,2025-11-15T15:45:14-05:00*%
%TF.ProjectId,CBU-Replacement-Daughterboard,4342552d-5265-4706-9c61-63656d656e74,rev?*%
%TF.SameCoordinates,Original*%
%TF.FileFunction,Legend,Top*%
%TF.FilePolarity,Positive*%
%FSLAX46Y46*%
G04 Gerber Fmt 4.6, Leading zero omitted, Abs format (unit mm)*
G04 Created by KiCad (PCBNEW 9.0.5) date 2025-11-15 15:45:14*
%MOMM*%
%LPD*%
G01*
G04 APERTURE LIST*
G04 Aperture macros list*
%AMRoundRect*
0 Rectangle with rounded corners*
0 $1 Rounding radius*
0 $2 $3 $4 $5 $6 $7 $8 $9 X,Y pos of 4 corners*
0 Add a 4 corners polygon primitive as box body*
4,1,4,$2,$3,$4,$5,$6,$7,$8,$9,$2,$3,0*
0 Add four circle primitives for the rounded corners*
1,1,$1+$1,$2,$3*
1,1,$1+$1,$4,$5*
1,1,$1+$1,$6,$7*
1,1,$1+$1,$8,$9*
0 Add four rect primitives between the rounded corners*
20,1,$1+$1,$2,$3,$4,$5,0*
20,1,$1+$1,$4,$5,$6,$7,0*
20,1,$1+$1,$6,$7,$8,$9,0*
20,1,$1+$1,$8,$9,$2,$3,0*%
G04 Aperture macros list end*
%ADD10C,0.150000*%
%ADD11C,0.106680*%
%ADD12C,0.120000*%
%ADD13C,0.100000*%
%ADD14C,0.127000*%
%ADD15C,0.504000*%
%ADD16C,2.500000*%
%ADD17RoundRect,0.250000X-1.100000X0.250000X-1.100000X-0.250000X1.100000X-0.250000X1.100000X0.250000X0*%
%ADD18RoundRect,0.150000X-0.700000X0.150000X-0.700000X-0.150000X0.700000X-0.150000X0.700000X0.150000X0*%
%ADD19RoundRect,0.525400X-0.900400X-0.525400X0.900400X-0.525400X0.900400X0.525400X-0.900400X0.525400X0*%
%ADD20RoundRect,0.300400X-0.300400X1.000400X-0.300400X-1.000400X0.300400X-1.000400X0.300400X1.000400X0*%
%ADD21C,1.700000*%
G04 APERTURE END LIST*
D10*
X140866666Y-98304819D02*
X140533333Y-97828628D01*
X140295238Y-98304819D02*
X140295238Y-97304819D01*
X140295238Y-97304819D02*
X140676190Y-97304819D01*
X140676190Y-97304819D02*
X140771428Y-97352438D01*
X140771428Y-97352438D02*
X140819047Y-97400057D01*
X140819047Y-97400057D02*
X140866666Y-97495295D01*
X140866666Y-97495295D02*
X140866666Y-97638152D01*
X140866666Y-97638152D02*
X140819047Y-97733390D01*
X140819047Y-97733390D02*
X140771428Y-97781009D01*
X140771428Y-97781009D02*
X140676190Y-97828628D01*
X140676190Y-97828628D02*
X140295238Y-97828628D01*
X141295238Y-97781009D02*
X141628571Y-97781009D01*
X141771428Y-98304819D02*
X141295238Y-98304819D01*
X141295238Y-98304819D02*
X141295238Y-97304819D01*
X141295238Y-97304819D02*
X141771428Y-97304819D01*
X142533333Y-97781009D02*
X142200000Y-97781009D01*
X142200000Y-98304819D02*
X142200000Y-97304819D01*
X142200000Y-97304819D02*
X142676190Y-97304819D01*
X143200000Y-97304819D02*
X143200000Y-97542914D01*
X142961905Y-97447676D02*
X143200000Y-97542914D01*
X143200000Y-97542914D02*
X143438095Y-97447676D01*
X143057143Y-97733390D02*
X143200000Y-97542914D01*
X143200000Y-97542914D02*
X143342857Y-97733390D01*
X143961905Y-97304819D02*
X143961905Y-97542914D01*
X143723810Y-97447676D02*
X143961905Y-97542914D01*
X143961905Y-97542914D02*
X144200000Y-97447676D01*
X143819048Y-97733390D02*
X143961905Y-97542914D01*
X143961905Y-97542914D02*
X144104762Y-97733390D01*
D11*
X146556450Y-82696391D02*
X146556450Y-83329698D01*
X146556450Y-83329698D02*
X146593704Y-83404204D01*
X146593704Y-83404204D02*
X146630957Y-83441458D01*
X146630957Y-83441458D02*
X146705464Y-83478711D01*
X146705464Y-83478711D02*
X146854477Y-83478711D01*
X146854477Y-83478711D02*
X146928984Y-83441458D01*
X146928984Y-83441458D02*
X146966237Y-83404204D01*
X146966237Y-83404204D02*
X147003490Y-83329698D01*
X147003490Y-83329698D02*
X147003490Y-82696391D01*
X147785810Y-83478711D02*
X147338770Y-83478711D01*
X147562290Y-83478711D02*
X147562290Y-82696391D01*
X147562290Y-82696391D02*
X147487783Y-82808151D01*
X147487783Y-82808151D02*
X147413277Y-82882658D01*
X147413277Y-82882658D02*
X147338770Y-82919911D01*
D12*
%TO.C,J1*%
X142410000Y-94760000D02*
X142410000Y-92960000D01*
X142410000Y-86840000D02*
X143400000Y-86840000D01*
X142410000Y-85040000D02*
X142410000Y-86840000D01*
X140960000Y-94760000D02*
X142410000Y-94760000D01*
X140960000Y-85040000D02*
X142410000Y-85040000D01*
X138140000Y-86310000D02*
X138140000Y-93490000D01*
D13*
%TO.C,U1*%
X146683400Y-103614500D02*
X146683400Y-86469500D01*
X148588400Y-105519500D02*
X162558400Y-105519500D01*
D14*
X151078400Y-84564500D02*
X151082128Y-83554228D01*
X151582128Y-83054500D02*
X159577400Y-83054500D01*
X160077400Y-83554500D02*
X160077400Y-84564500D01*
D13*
X162558400Y-84564500D02*
X148588400Y-84564500D01*
X164463400Y-103614500D02*
X164463400Y-86469500D01*
X146683400Y-86465500D02*
G75*
G02*
X148588400Y-84560500I1905001J-1D01*
G01*
X148588400Y-105519500D02*
G75*
G02*
X146683400Y-103614500I1J1905001D01*
G01*
D14*
X151082128Y-83554228D02*
G75*
G02*
X151582128Y-83054501I500018J-291D01*
G01*
X159577400Y-83054500D02*
G75*
G02*
X160077400Y-83554500I0J-500000D01*
G01*
D13*
X162558400Y-84564500D02*
G75*
G02*
X164463400Y-86469500I0J-1905000D01*
G01*
X164463400Y-103614500D02*
G75*
G02*
X162558400Y-105519500I-1905000J0D01*
G01*
D15*
X146725400Y-84980500D02*
G75*
G02*
X146221400Y-84980500I-252000J0D01*
G01*
X146221400Y-84980500D02*
G75*
G02*
X146725400Y-84980500I252000J0D01*
G01*
X147999400Y-85697500D02*
G75*
G02*
X147495400Y-85697500I-252000J0D01*
G01*
X147495400Y-85697500D02*
G75*
G02*
X147999400Y-85697500I252000J0D01*
G01*
%TD*%
%LPC*%
D16*
%TO.C,REF\u002A\u002A*%
X142200000Y-101300000D03*
%TD*%
D17*
%TO.C,J1*%
X139350000Y-94250000D03*
X139350000Y-85550000D03*
D18*
X142550000Y-92400000D03*
X142550000Y-91150000D03*
X142550000Y-89900000D03*
X142550000Y-88650000D03*
X142550000Y-87400000D03*
%TD*%
D19*
%TO.C,U1*%
X147518400Y-87481500D03*
X147518400Y-90021500D03*
X147518400Y-92561500D03*
X147518400Y-95101500D03*
X147518400Y-97641500D03*
X147518400Y-100181500D03*
X147518400Y-102721500D03*
X163683400Y-102721500D03*
X163683400Y-100181500D03*
X163683400Y-97641500D03*
X163683400Y-95101500D03*
X163683400Y-92561500D03*
X163683400Y-90021500D03*
X163683400Y-87481500D03*
D20*
X153792000Y-100633200D03*
X156332000Y-100633200D03*
D21*
X154300000Y-86460000D03*
X156840000Y-86460000D03*
X154300000Y-89000000D03*
X156840000Y-89000000D03*
X154300000Y-91540000D03*
X156840000Y-91540000D03*
X154300000Y-94080000D03*
X156747400Y-94023200D03*
%TD*%
%LPD*%
M02*
